<svg xmlns="http://www.w3.org/2000/svg" width="31.83" height="23.995" viewBox="0 0 31.83 23.995">
    <path fill="#fff" fill-rule="evenodd" d="M425.275-3628.81l-2.788 3.136a1.987 1.987 0 0 1-2.974 0l-2.788-3.136a1.98 1.98 0 0 1 .288-2.922A6.881 6.881 0 0 1 421-3633a6.876 6.876 0 0 1 3.986 1.268 1.98 1.98 0 0 1 .29 2.922m11.136-11.562a2 2 0 0 0-.17-2.822A22.954 22.954 0 0 0 421-3649a22.962 22.962 0 0 0-15.242 5.806 2 2 0 0 0-.168 2.822 2 2 0 0 0 2.822.17A18.969 18.969 0 0 1 421-3645a18.962 18.962 0 0 1 12.588 4.8 1.993 1.993 0 0 0 1.326.5 2 2 0 0 0 1.5-.674m-6.618 6.818a1.986 1.986 0 0 1-1.352-.528A10.963 10.963 0 0 0 421-3637a10.962 10.962 0 0 0-7.44 2.918 2 2 0 0 1-2.826-.118 2 2 0 0 1 .118-2.826A14.956 14.956 0 0 1 421-3641a14.957 14.957 0 0 1 10.15 3.974 2 2 0 0 1 .118 2.826 2 2 0 0 1-1.474.646" transform="translate(-405.085 3649)"/>
</svg>
