<svg xmlns="http://www.w3.org/2000/svg" width="37" height="37" viewBox="0 0 37 37">
  <g id="그룹_65875" data-name="그룹 65875" transform="translate(-224 -724)">
    <g id="그룹_65873" data-name="그룹 65873">
      <path id="패스_8080" data-name="패스 8080" d="M238.616,738.1v8.8c0,.546-.431.789-.919.789s-.918-.243-.918-.789v-8.8c0-.545.43-.789.918-.789S238.616,737.56,238.616,738.1Z"/>
      <path id="패스_8081" data-name="패스 8081" d="M244.529,737.4c2.97,0,4.52,1.364,4.52,4.836v.531c0,3.473-1.55,4.837-4.52,4.837h-2.368c-.919,0-1.22-.288-1.22-1.192v-7.821c0-.9.3-1.191,1.22-1.191Zm-1.765,8.653h1.521c2.1,0,2.913-.846,2.913-3.429v-.244c0-2.584-.818-3.43-2.913-3.43h-1.521Z"/>
    </g>
    <g id="그룹_65874" data-name="그룹 65874">
      <path id="패스_8082" data-name="패스 8082" d="M242.5,761A18.5,18.5,0,1,1,261,742.5,18.521,18.521,0,0,1,242.5,761Zm0-34.419A15.919,15.919,0,1,0,258.419,742.5,15.937,15.937,0,0,0,242.5,726.581Z"/>
    </g>
  </g>
</svg>
