<svg xmlns="http://www.w3.org/2000/svg" width="39" height="36" viewBox="0 0 39 36">
  <g id="그룹_65867" data-name="그룹 65867" transform="translate(-1977 -1565)">
    <g id="사각형_138632" data-name="사각형 138632" transform="translate(1977 1568)" fill="none" stroke="#000" stroke-width="3">
      <rect width="39" height="33" rx="6" stroke="none"/>
      <rect x="1.5" y="1.5" width="36" height="30" rx="4.5" fill="none"/>
    </g>
    <rect id="사각형_138633" data-name="사각형 138633" width="3" height="9" rx="1.5" transform="translate(1988 1565)"/>
    <rect id="사각형_138634" data-name="사각형 138634" width="3" height="9" rx="1.5" transform="translate(2002 1565)"/>
    <circle id="타원_348" data-name="타원 348" cx="2" cy="2" r="2" transform="translate(1984 1576)"/>
    <circle id="타원_352" data-name="타원 352" cx="2" cy="2" r="2" transform="translate(1984 1583)"/>
    <circle id="타원_356" data-name="타원 356" cx="2" cy="2" r="2" transform="translate(1984 1590)"/>
    <circle id="타원_349" data-name="타원 349" cx="2" cy="2" r="2" transform="translate(1991 1576)"/>
    <circle id="타원_353" data-name="타원 353" cx="2" cy="2" r="2" transform="translate(1991 1583)"/>
    <circle id="타원_357" data-name="타원 357" cx="2" cy="2" r="2" transform="translate(1991 1590)"/>
    <circle id="타원_350" data-name="타원 350" cx="2" cy="2" r="2" transform="translate(1998 1576)"/>
    <circle id="타원_354" data-name="타원 354" cx="2" cy="2" r="2" transform="translate(1998 1583)"/>
    <circle id="타원_358" data-name="타원 358" cx="2" cy="2" r="2" transform="translate(1998 1590)"/>
    <circle id="타원_351" data-name="타원 351" cx="2" cy="2" r="2" transform="translate(2005 1576)"/>
    <circle id="타원_355" data-name="타원 355" cx="2" cy="2" r="2" transform="translate(2005 1583)"/>
    <circle id="타원_359" data-name="타원 359" cx="2" cy="2" r="2" transform="translate(2005 1590)"/>
  </g>
</svg>
