<svg xmlns="http://www.w3.org/2000/svg" width="42" height="40" viewBox="0 0 42 40">
  <g id="그룹_65866" data-name="그룹 65866" transform="translate(-1971 -1595)">
    <path id="패스_8073" data-name="패스 8073" d="M207-727h28a6.018,6.018,0,0,1,6,6v20a6.018,6.018,0,0,1-6,6v4a2,2,0,0,1-1.014,1.74A1.992,1.992,0,0,1,233-689a1.988,1.988,0,0,1-1.03-.286L223-695H207a6.018,6.018,0,0,1-6-6v-20A6.018,6.018,0,0,1,207-727Z" transform="translate(1771 2323)" fill="none" stroke="#000" stroke-width="2"/>
    <rect id="사각형_138629" data-name="사각형 138629" width="27" height="2" rx="1" transform="translate(1979 1604)"/>
    <rect id="사각형_138630" data-name="사각형 138630" width="27" height="2" rx="1" transform="translate(1979 1611)"/>
    <rect id="사각형_138631" data-name="사각형 138631" width="15" height="2" rx="1" transform="translate(1979 1618)"/>
  </g>
</svg>
