<svg xmlns="http://www.w3.org/2000/svg" width="43" height="43" viewBox="0 0 43 43">
  <g id="그룹_65862" data-name="그룹 65862" transform="translate(-98.5 -658.5)">
    <path id="패스_8065" data-name="패스 8065" d="M134.388,658.5H110.612a7.12,7.12,0,0,0-7.112,7.112V668.5H100a1.5,1.5,0,0,0,0,3h3.5v17H100a1.5,1.5,0,0,0,0,3h3.5v2.888a7.12,7.12,0,0,0,7.112,7.112h23.776a7.12,7.12,0,0,0,7.112-7.112V665.612A7.12,7.12,0,0,0,134.388,658.5Zm4.112,35.888a4.117,4.117,0,0,1-4.112,4.112H110.612a4.117,4.117,0,0,1-4.112-4.112V691.5H110a1.5,1.5,0,0,0,0-3h-3.5v-17H110a1.5,1.5,0,0,0,0-3h-3.5v-2.888a4.117,4.117,0,0,1,4.112-4.112h23.776a4.117,4.117,0,0,1,4.112,4.112Z" fill="#1d1d1d"/>
    <path id="패스_8066" data-name="패스 8066" d="M123.375,679a5.25,5.25,0,1,0-5.25-5.25A5.256,5.256,0,0,0,123.375,679Zm0-7.5a2.25,2.25,0,1,1-2.25,2.25A2.253,2.253,0,0,1,123.375,671.5Z" fill="#1d1d1d"/>
    <path id="패스_8067" data-name="패스 8067" d="M123.375,681.125A8.885,8.885,0,0,0,114.5,690a1.5,1.5,0,0,0,3,0,5.875,5.875,0,0,1,11.75,0,1.5,1.5,0,0,0,3,0A8.885,8.885,0,0,0,123.375,681.125Z" fill="#1d1d1d"/>
  </g>
</svg>
