<svg xmlns="http://www.w3.org/2000/svg" width="36" height="36" viewBox="0 0 36 36">
  <g id="그룹_65841" data-name="그룹 65841" transform="translate(-1916 13448)">
    <rect id="사각형_138628" data-name="사각형 138628" width="8" height="28" transform="translate(1930 -13444)" fill="#fff"/>
    <path id="패스_8052" data-name="패스 8052" d="M25-1400a3,3,0,0,1-3-3,3,3,0,0,1,3-3,3,3,0,0,1,3,3A3,3,0,0,1,25-1400Zm2,16a2.006,2.006,0,0,1-2,2,2.006,2.006,0,0,1-2-2v-12a2.006,2.006,0,0,1,2-2,2.006,2.006,0,0,1,2,2Zm-2-28a18,18,0,0,0-18,18,18,18,0,0,0,18,18,18,18,0,0,0,18-18A18,18,0,0,0,25-1412Z" transform="translate(1909 -12036)" fill="#c9c9c9" fill-rule="evenodd"/>
  </g>
</svg>
