<svg xmlns="http://www.w3.org/2000/svg" width="43" height="43" viewBox="0 0 43 43">
  <g id="그룹_65865" data-name="그룹 65865" transform="translate(-148.5 -658.5)">
    <g id="그룹_65863" data-name="그룹 65863">
      <path id="패스_8068" data-name="패스 8068" d="M165.486,674.893v10.223c0,.634-.5.917-1.068.917s-1.067-.283-1.067-.917V674.893c0-.634.5-.917,1.067-.917S165.486,674.259,165.486,674.893Z" fill="#1d1d1d"/>
      <path id="패스_8069" data-name="패스 8069" d="M172.358,674.075c3.452,0,5.253,1.585,5.253,5.62v.618c0,4.036-1.8,5.621-5.253,5.621h-2.752c-1.067,0-1.418-.334-1.418-1.385V675.46c0-1.051.351-1.385,1.418-1.385Zm-2.051,10.057h1.767c2.435,0,3.386-.984,3.386-3.986v-.284c0-3-.951-3.985-3.386-3.985h-1.767Z" fill="#1d1d1d"/>
    </g>
    <g id="그룹_65864" data-name="그룹 65864">
      <path id="패스_8070" data-name="패스 8070" d="M170,701.5A21.5,21.5,0,1,1,191.5,680,21.525,21.525,0,0,1,170,701.5Zm0-40A18.5,18.5,0,1,0,188.5,680,18.521,18.521,0,0,0,170,661.5Z" fill="#1d1d1d"/>
    </g>
  </g>
</svg>
