<svg xmlns="http://www.w3.org/2000/svg" width="36" height="36" viewBox="0 0 36 36">
  <g id="그룹_65872" data-name="그룹 65872" transform="translate(-140 -724)">
    <g id="그룹_65869" data-name="그룹 65869">
      <path id="패스_8077" data-name="패스 8077" d="M152.755,735.2a2.835,2.835,0,1,0,2.835,2.835A2.843,2.843,0,0,0,152.755,735.2Z"/>
    </g>
    <g id="그룹_65870" data-name="그룹 65870">
      <path id="패스_8078" data-name="패스 8078" d="M163.064,735.2a2.835,2.835,0,1,0,2.834,2.835A2.843,2.843,0,0,0,163.064,735.2Z"/>
    </g>
    <g id="그룹_65871" data-name="그룹 65871">
      <path id="패스_8079" data-name="패스 8079" d="M158.011,750.788a5.675,5.675,0,0,1-5.668-5.668,1.417,1.417,0,1,1,2.835,0,2.835,2.835,0,0,0,5.669,0,1.417,1.417,0,1,1,2.834,0A5.675,5.675,0,0,1,158.011,750.788Z"/>
    </g>
    <g id="사각형_138636" data-name="사각형 138636">
      <rect id="사각형_138637" data-name="사각형 138637" width="36" height="36" rx="6.171" transform="translate(140 724)" fill="none"/>
      <rect id="사각형_138638" data-name="사각형 138638" width="32.914" height="32.914" rx="4.629" transform="translate(141.543 725.543)" fill="none" stroke="#000" stroke-width="3"/>
    </g>
  </g>
</svg>
