<svg xmlns="http://www.w3.org/2000/svg" width="43" height="39" viewBox="0 0 43 39">
  <path id="패스_8071" data-name="패스 8071" d="M232,660.5H208a9.511,9.511,0,0,0-9.5,9.5v20a9.511,9.511,0,0,0,9.5,9.5h24a9.511,9.511,0,0,0,9.5-9.5V670A9.511,9.511,0,0,0,232,660.5Zm-24,3h24a6.508,6.508,0,0,1,6.5,6.5v1.151l-12.822,7.693a6.493,6.493,0,0,0-11.356,0L201.5,671.151V670A6.508,6.508,0,0,1,208,663.5ZM223.5,682a3.5,3.5,0,1,1-3.5-3.5A3.5,3.5,0,0,1,223.5,682Zm8.5,14.5H208a6.508,6.508,0,0,1-6.5-6.5V674.649l11.555,6.933c.142.085.3.168.453.251,0,.056-.008.111-.008.167a6.5,6.5,0,0,0,13,0c0-.056-.007-.111-.008-.167.154-.083.311-.165.454-.251l11.554-6.933V690A6.508,6.508,0,0,1,232,696.5Z" transform="translate(-198.5 -660.5)" fill="#1d1d1d"/>
</svg>
