<svg xmlns="http://www.w3.org/2000/svg" width="23.66" height="34.491" viewBox="0 0 23.66 34.491">
  <g id="그룹_65883" data-name="그룹 65883" transform="translate(-1723 -1612)">
    <path id="패스_8096" data-name="패스 8096" d="M905.153-984.816h-3.415a1.358,1.358,0,0,1-1.354-1.354,1.358,1.358,0,0,1,1.354-1.354h3.415a1.358,1.358,0,0,1,1.354,1.354A1.358,1.358,0,0,1,905.153-984.816ZM898-996c.785,1.21,1.375,1.472,1.489,3.061a3.657,3.657,0,0,0,1.557,3.061h4.8a3.571,3.571,0,0,0,1.557-3.061c.114-1.589.7-1.851,1.489-3.061Z" transform="translate(831.385 2630.307)" fill="none" stroke="#000" stroke-width="2" fill-rule="evenodd"/>
    <path id="패스_8097" data-name="패스 8097" d="M909.411-1007.047c1.507-2.2,3.249-4.482,3.249-8.479,0-3.245-1.495-9.474-10.83-9.474s-10.83,6.229-10.83,9.474c0,4,1.742,6.282,3.249,8.479Z" transform="translate(833 2638)" fill="none" stroke="#000" stroke-width="2" fill-rule="evenodd"/>
  </g>
</svg>
