<svg xmlns="http://www.w3.org/2000/svg" width="45.333" height="45.334" viewBox="0 0 45.333 45.334">
  <path id="패스_5726" data-name="패스 5726" d="M616.333-1088a2,2,0,0,1-2-2,2,2,0,0,1,2-2,2,2,0,0,1,2,2A2,2,0,0,1,616.333-1088Zm3.9-15.872-1.9-.9v10.57a4.633,4.633,0,0,0-2-.468,4.672,4.672,0,0,0-4.667,4.667,4.672,4.672,0,0,0,4.667,4.667A4.672,4.672,0,0,0,621-1090v-10.177a4.6,4.6,0,0,1,1.4,1.913,1.329,1.329,0,0,0,1.673.868,1.331,1.331,0,0,0,.868-1.673C624-1102.025,620.617-1103.692,620.235-1103.872ZM605-1081.333h26.667V-1108H605ZM601-1108v16h-6.667v-26.667H621V-1112H605A4,4,0,0,0,601-1108Zm30.667-4H625v-6.667a4,4,0,0,0-4-4H594.333a4,4,0,0,0-4,4V-1092a4,4,0,0,0,4,4H601v6.667a4,4,0,0,0,4,4h26.667a4,4,0,0,0,4-4V-1108A4,4,0,0,0,631.667-1112Z" transform="translate(-590.333 1122.667)" fill="#fff" fill-rule="evenodd"/>
</svg>
