<svg xmlns="http://www.w3.org/2000/svg" width="29" height="29" viewBox="0 0 29 29">
  <g id="그룹_65887" data-name="그룹 65887" transform="translate(-3746.307 -807.154)">
    <g id="그룹_65886" data-name="그룹 65886">
      <path id="패스_8099" data-name="패스 8099" d="M3760.691,830.687a1.592,1.592,0,0,1-1.628-1.708,1.621,1.621,0,0,1,1.628-1.708,1.664,1.664,0,0,1,1.682,1.708A1.634,1.634,0,0,1,3760.691,830.687Zm-.026-18.1c.72,0,1.521.16,1.547.907a8.242,8.242,0,0,1-.08,1.041c-.186,2.055-.72,6.858-.933,10.034h-1.041c-.241-3.176-.721-7.845-.935-10.008-.026-.346-.08-.827-.08-1.093C3759.143,812.778,3759.917,812.592,3760.665,812.592Z"/>
    </g>
    <circle id="타원_361" data-name="타원 361" cx="13.5" cy="13.5" r="13.5" transform="translate(3747.307 808.154)" fill="none" stroke="#000" stroke-miterlimit="10" stroke-width="2"/>
  </g>
</svg>
