<svg xmlns="http://www.w3.org/2000/svg" width="38.902" height="37.179" viewBox="0 0 38.902 37.179">
  <g id="그룹_65880" data-name="그룹 65880" transform="translate(-266.75 -722.75)">
    <path id="패스_5303" data-name="패스 5303" d="M291.034,724h-9.667a13.367,13.367,0,0,0,0,26.735H289a.993.993,0,0,1,1,.947,16.716,16.716,0,0,1-.662,5.666,1,1,0,0,0,1.4,1.2c7.724-3.754,13.664-12.194,13.664-21.176A13.408,13.408,0,0,0,291.034,724" fill="none" stroke="#000" stroke-miterlimit="10" stroke-width="2.5" fill-rule="evenodd"/>
    <g id="그룹_65879" data-name="그룹 65879">
      <path id="패스_8090" data-name="패스 8090" d="M279.612,737.7v.394c0,2.333-1.075,3.321-2.937,3.321s-2.937-.988-2.937-3.321V737.7c0-2.332,1.075-3.32,2.937-3.32S279.612,735.367,279.612,737.7Zm-4.636.1v.2c0,1.737.576,2.294,1.7,2.294s1.7-.557,1.7-2.294v-.2c0-1.737-.576-2.294-1.7-2.294S274.976,736.059,274.976,737.8Z" stroke="#000" stroke-miterlimit="10" stroke-width="0.2"/>
      <path id="패스_8091" data-name="패스 8091" d="M283.521,734.484c1.66,0,2.371.845,2.371,1.977v.135a2.089,2.089,0,0,1-2.371,2.083h-1.382v2.159c0,.365-.288.528-.615.528s-.614-.163-.614-.528v-5.557c0-.6.2-.8.816-.8Zm-1.382,3.158h1.218c.807,0,1.3-.259,1.3-1.066v-.1c0-.758-.489-.959-1.19-.959h-1.324Z" stroke="#000" stroke-miterlimit="10" stroke-width="0.2"/>
      <path id="패스_8092" data-name="패스 8092" d="M291.106,734.484c.288,0,.422.231.422.509s-.134.509-.422.509h-2.87v1.813h2.678c.278,0,.413.231.413.5s-.135.5-.413.5h-2.678v1.978h2.937c.288,0,.422.24.422.509s-.134.509-.422.509h-3.34c-.614,0-.816-.193-.816-.8v-5.231c0-.6.2-.8.816-.8Z" stroke="#000" stroke-miterlimit="10" stroke-width="0.2"/>
      <path id="패스_8093" data-name="패스 8093" d="M298.22,734.926v5.6c0,.6-.2.8-.816.8-.47,0-.652-.1-1.142-.969l-1.814-3.244a4.586,4.586,0,0,1-.46-1.1v4.856a.571.571,0,0,1-1.133,0v-5.6c0-.605.2-.8.816-.8.47,0,.653.1,1.142.97l1.814,3.244a4.588,4.588,0,0,1,.461,1.1v-4.856a.57.57,0,0,1,1.132,0Z" stroke="#000" stroke-miterlimit="10" stroke-width="0.2"/>
    </g>
  </g>
</svg>
