<svg xmlns="http://www.w3.org/2000/svg" width="36.583" height="36.583" viewBox="0 0 36.583 36.583">
  <path id="패스_5014" data-name="패스 5014" d="M413-1486a10.011,10.011,0,0,1-10-10,10.011,10.011,0,0,1,10-10,10.011,10.011,0,0,1,10,10,10.011,10.011,0,0,1-10,10m22,9.172-10.8-10.8A13.912,13.912,0,0,0,427-1496a14.015,14.015,0,0,0-14-14,14.015,14.015,0,0,0-14,14,14.015,14.015,0,0,0,14,14,13.912,13.912,0,0,0,8.368-2.8l10.8,10.8a2.005,2.005,0,0,0,2.828,0,2.005,2.005,0,0,0,0-2.828" transform="translate(-399 1510)" fill="#fff" fill-rule="evenodd"/>
</svg>
