<svg xmlns="http://www.w3.org/2000/svg" width="44" height="44" viewBox="0 0 44 44">
  <g id="그룹_65840" data-name="그룹 65840" transform="translate(-1310 -620)">
    <path id="패스_5080" data-name="패스 5080" d="M25-1586a4,4,0,0,1-4-4,4,4,0,0,1,4-4,4,4,0,0,1,4,4,4,4,0,0,1-4,4" transform="translate(1307 2232)" fill="#fff" fill-rule="evenodd"/>
    <path id="패스_5084" data-name="패스 5084" d="M25-1580a10,10,0,0,1-10-10,10,10,0,0,1,10-10,10,10,0,0,1,10,10,10,10,0,0,1-10,10m21.934-11.552a1.972,1.972,0,0,0-1.6-1.74l-4.932-.984a15.634,15.634,0,0,0-1.212-3.094l2.85-4.268a1.978,1.978,0,0,0-.082-2.342,22.187,22.187,0,0,0-2.422-2.5,1.973,1.973,0,0,0-2.39-.122l-4.142,2.766a15.956,15.956,0,0,0-3.336-1.466l-1-4.992a2.01,2.01,0,0,0-1.782-1.608c-.622-.06-1.252-.1-1.89-.1-.444,0-.882.018-1.32.048a2.036,2.036,0,0,0-1.878,1.612l-.98,4.91a16.023,16.023,0,0,0-3.584,1.442l-4.184-2.79a1.969,1.969,0,0,0-2.368.1,21.9,21.9,0,0,0-2.36,2.36,1.969,1.969,0,0,0-.1,2.368l2.792,4.184a15.931,15.931,0,0,0-1.444,3.584l-4.908.98a2.036,2.036,0,0,0-1.614,1.878c-.03.436-.048.876-.048,1.32,0,.638.036,1.268.1,1.89a2.012,2.012,0,0,0,1.608,1.782l4.992,1a15.972,15.972,0,0,0,1.466,3.338L8.4-1577.852a1.972,1.972,0,0,0,.12,2.39,22.161,22.161,0,0,0,2.5,2.42,1.972,1.972,0,0,0,2.342.082l4.268-2.848a15.892,15.892,0,0,0,3.094,1.212l.984,4.932a1.972,1.972,0,0,0,1.742,1.6c.51.042,1.028.066,1.55.066.672,0,1.334-.04,1.988-.1a2.018,2.018,0,0,0,1.78-1.608l1-5.01a16.007,16.007,0,0,0,2.872-1.218l4.2,2.8a1.971,1.971,0,0,0,2.362-.1,22.006,22.006,0,0,0,2.564-2.564,1.975,1.975,0,0,0,.1-2.362l-2.8-4.2a16.054,16.054,0,0,0,1.216-2.872l5.012-1a2.018,2.018,0,0,0,1.606-1.78A19.773,19.773,0,0,0,47-1590c0-.524-.024-1.04-.066-1.552" transform="translate(1307 2232)" fill="#fff" fill-rule="evenodd"/>
  </g>
</svg>
