<svg xmlns="http://www.w3.org/2000/svg" width="37.767" height="37" viewBox="0 0 37.767 37">
  <g id="그룹_65876" data-name="그룹 65876" transform="translate(-180 -724)">
    <g id="그룹_65878" data-name="그룹 65878" transform="translate(0)">
      <path id="패스_8088" data-name="패스 8088" d="M213.767,734h-9v-5a5,5,0,0,0-10,0v5h-9a4,4,0,0,0-4,4v4a2,2,0,0,0,2,2h32a2,2,0,0,0,2-2v-4A4,4,0,0,0,213.767,734Zm1.5,7.5h-31V738a1.5,1.5,0,0,1,1.5-1.5h11.5V729a2.5,2.5,0,0,1,5,0v7.5h11.5a1.5,1.5,0,0,1,1.5,1.5Z"/>
      <path id="패스_8089" data-name="패스 8089" d="M215.767,746h-32a2,2,0,0,0-2,2v5.528a2,2,0,0,1-.212.894l-1.341,2.684A2,2,0,0,0,182,760h2.781a.982.982,0,0,0,.468.857,1,1,0,0,0,1.372-.342l.309-.515h14.525a.979.979,0,0,0,.982,1,1,1,0,0,0,.859-.485l.309-.515h2.85a.979.979,0,0,0,.982,1,1,1,0,0,0,.859-.485l.309-.515h3.159a6,6,0,0,0,6-6v-6A2,2,0,0,0,215.767,746Zm-.5,8a3.5,3.5,0,0,1-3.5,3.5h-1.6c.077-.107.15-.225.228-.329a5.16,5.16,0,0,0,1-5.487,1,1,0,0,0-1.9.632c.622,1.867.12,2.543-.71,3.663-.252.341-.51.691-.742,1.079l-.266.442h-2.34a4.252,4.252,0,0,0,1.011-3.2l-.005-.3a1,1,0,0,0-2,0l.006.347a2.378,2.378,0,0,1-1.146,2.424.952.952,0,0,0-.26.287l-.266.442H188.381a11.82,11.82,0,0,0,1.386-5.5,1,1,0,0,0-2,0,9.84,9.84,0,0,1-1.4,5.058l-.266.442h-3.288l.979-1.96a4.517,4.517,0,0,0,.476-2.012V748.5h31Z"/>
    </g>
  </g>
</svg>
