<svg xmlns="http://www.w3.org/2000/svg" width="26.914" height="27.303" viewBox="0 0 26.914 27.303">
  <g id="그룹_65882" data-name="그룹 65882" transform="translate(-1720.999 -1565.965)">
    <path id="패스_8094" data-name="패스 8094" d="M136.447-1683.434a15.256,15.256,0,0,0,3-9.2,15.255,15.255,0,0,0-3-9.2.975.975,0,0,0-1.525-.107,1.415,1.415,0,0,0-.091,1.781,12.481,12.481,0,0,1,2.454,7.523,12.482,12.482,0,0,1-2.454,7.525,1.413,1.413,0,0,0,.091,1.78.993.993,0,0,0,.716.318,1.016,1.016,0,0,0,.809-.424m-3.612-3.54a.975.975,0,0,1-.627-.236,1.4,1.4,0,0,1-.251-1.76,7,7,0,0,0,1.01-3.663,7,7,0,0,0-1.01-3.661,1.4,1.4,0,0,1,.251-1.76.983.983,0,0,1,1.506.291,9.811,9.811,0,0,1,1.412,5.13,9.812,9.812,0,0,1-1.412,5.131,1.04,1.04,0,0,1-.879.527" transform="translate(1608.467 3272.248)" fill-rule="evenodd"/>
    <path id="패스_8095" data-name="패스 8095" d="M106.765-1700.944l6.621-5.8c.713-.624,1.73-.03,1.73,1.011v22.7c0,1.04-1.017,1.635-1.73,1.01l-6.621-5.8a.978.978,0,0,0-.646-.251h-3.963A2.36,2.36,0,0,1,100-1690.6v-7.576a2.361,2.361,0,0,1,2.157-2.521h3.963a.978.978,0,0,0,.646-.251" transform="translate(1622 3274)" fill="none" stroke="#000" stroke-width="2" fill-rule="evenodd"/>
  </g>
</svg>
